<svg width="17" height="16" viewBox="0 0 17 16" fill="none" xmlns="http://www.w3.org/2000/svg">
<path d="M6.30666 5.13977L7.83333 3.60643V9.99977C7.83333 10.1766 7.90357 10.3461 8.02859 10.4712C8.15361 10.5962 8.32318 10.6664 8.49999 10.6664C8.67681 10.6664 8.84637 10.5962 8.9714 10.4712C9.09642 10.3461 9.16666 10.1766 9.16666 9.99977V3.60643L10.6933 5.13977C10.7553 5.20225 10.829 5.25185 10.9103 5.2857C10.9915 5.31954 11.0787 5.33697 11.1667 5.33697C11.2547 5.33697 11.3418 5.31954 11.423 5.2857C11.5043 5.25185 11.578 5.20225 11.64 5.13977C11.7025 5.07779 11.7521 5.00406 11.7859 4.92282C11.8198 4.84158 11.8372 4.75444 11.8372 4.66644C11.8372 4.57843 11.8198 4.49129 11.7859 4.41005C11.7521 4.32881 11.7025 4.25508 11.64 4.1931L8.97333 1.52643C8.90993 1.46574 8.83516 1.41816 8.75333 1.38643C8.59102 1.31976 8.40897 1.31976 8.24666 1.38643C8.16483 1.41816 8.09006 1.46574 8.02666 1.52643L5.35999 4.1931C5.29784 4.25526 5.24853 4.32905 5.21489 4.41027C5.18125 4.49148 5.16393 4.57853 5.16393 4.66644C5.16393 4.75434 5.18125 4.84139 5.21489 4.9226C5.24853 5.00382 5.29784 5.07761 5.35999 5.13977C5.42215 5.20193 5.49595 5.25123 5.57716 5.28487C5.65838 5.31851 5.74542 5.33583 5.83333 5.33583C5.92123 5.33583 6.00828 5.31851 6.08949 5.28487C6.17071 5.25123 6.2445 5.20193 6.30666 5.13977ZM14.5 7.99977C14.3232 7.99977 14.1536 8.07001 14.0286 8.19503C13.9036 8.32005 13.8333 8.48962 13.8333 8.66643V12.6664C13.8333 12.8432 13.7631 13.0128 13.6381 13.1378C13.513 13.2629 13.3435 13.3331 13.1667 13.3331H3.83333C3.65652 13.3331 3.48695 13.2629 3.36192 13.1378C3.2369 13.0128 3.16666 12.8432 3.16666 12.6664V8.66643C3.16666 8.48962 3.09642 8.32005 2.9714 8.19503C2.84638 8.07001 2.67681 7.99977 2.49999 7.99977C2.32318 7.99977 2.15361 8.07001 2.02859 8.19503C1.90357 8.32005 1.83333 8.48962 1.83333 8.66643V12.6664C1.83333 13.1969 2.04404 13.7056 2.41911 14.0806C2.79419 14.4557 3.3029 14.6664 3.83333 14.6664H13.1667C13.6971 14.6664 14.2058 14.4557 14.5809 14.0806C14.9559 13.7056 15.1667 13.1969 15.1667 12.6664V8.66643C15.1667 8.48962 15.0964 8.32005 14.9714 8.19503C14.8464 8.07001 14.6768 7.99977 14.5 7.99977Z" fill="#4f46e5"/>
</svg>
